solid cube
 facet normal 0.0 0.0 -1.0
  outer loop
   vertex -20.0 -20.0 0.0
   vertex -20.0 20.0 0.0
   vertex 20.0 20.0 0.0
  endloop
 endfacet
 facet normal 0.0 0.0 -1.0
  outer loop
   vertex -20.0 -20.0 0.0
   vertex 20.0 20.0 0.0
   vertex 20.0 -20.0 0.0
  endloop
 endfacet
 facet normal 0.0 0.0 1.0
  outer loop
   vertex -20.0 -20.0 40.0
   vertex 20.0 -20.0 40.0
   vertex 20.0 20.0 40.0
  endloop
 endfacet
 facet normal 0.0 0.0 1.0
  outer loop
   vertex -20.0 -20.0 40.0
   vertex 20.0 20.0 40.0
   vertex -20.0 20.0 40.0
  endloop
 endfacet
 facet normal 0.0 -1.0 0.0
  outer loop
   vertex -20.0 -20.0 0.0
   vertex 20.0 -20.0 0.0
   vertex 20.0 -20.0 40.0
  endloop
 endfacet
 facet normal 0.0 -1.0 0.0
  outer loop
   vertex -20.0 -20.0 0.0
   vertex 20.0 -20.0 40.0
   vertex -20.0 -20.0 40.0
  endloop
 endfacet
 facet normal 0.0 1.0 0.0
  outer loop
   vertex -20.0 20.0 0.0
   vertex -20.0 20.0 40.0
   vertex 20.0 20.0 40.0
  endloop
 endfacet
 facet normal 0.0 1.0 0.0
  outer loop
   vertex -20.0 20.0 0.0
   vertex 20.0 20.0 40.0
   vertex 20.0 20.0 0.0
  endloop
 endfacet
 facet normal -1.0 0.0 0.0
  outer loop
   vertex -20.0 -20.0 0.0
   vertex -20.0 -20.0 40.0
   vertex -20.0 20.0 40.0
  endloop
 endfacet
 facet normal -1.0 0.0 0.0
  outer loop
   vertex -20.0 -20.0 0.0
   vertex -20.0 20.0 40.0
   vertex -20.0 20.0 0.0
  endloop
 endfacet
 facet normal 1.0 0.0 0.0
  outer loop
   vertex 20.0 -20.0 0.0
   vertex 20.0 20.0 0.0
   vertex 20.0 20.0 40.0
  endloop
 endfacet
 facet normal 1.0 0.0 0.0
  outer loop
   vertex 20.0 -20.0 0.0
   vertex 20.0 20.0 40.0
   vertex 20.0 -20.0 40.0
  endloop
 endfacet
endsolid cube
